<svg xmlns="http://www.w3.org/2000/svg" width="512" height="512" id="registration">
    <path
        d="M155 524.772L156.282 526.757C165.98 540.555 187.206 539.898 202.262 539.932L403.024 539.92C432.245 539.9 448.478 534.236 453.34 502.449L454.591 491.875C455.478 486.142 455.199 480.084 455.217 474.287L455.208 448.516C455.192 445.147 454.421 440.568 455.178 437.358C456.753 430.683 465.864 429.873 468.949 436.03L469.131 436.406C470.252 438.626 469.779 441.186 469.778 443.59L469.738 477.982C469.728 482.379 469.893 486.865 469.568 491.25L468.085 503.176C464.991 525.076 455.676 543.77 433.253 551.11C422.189 554.731 412.016 554.359 400.55 554.363L193.168 554.385C162.105 554.248 137 543.209 135.638 508.689L135.568 151.67C135.569 146.373 135.272 140.904 135.967 135.646C140.021 104.961 164.607 82.7728 195.188 81.6599L394.37 81.6478C403.865 81.6489 413.225 80.7282 422.541 82.837C447.517 88.4901 468.061 111.534 469.652 137.331C470.133 145.121 469.769 153.14 469.768 160.948L469.736 282.188C469.358 290.649 456.7 291.229 455.411 282.929C454.853 279.339 455.245 275.184 455.245 271.527L455.254 148.6C455.247 128.761 450.363 112.642 431.609 101.908C418.203 94.2339 407.477 96.1772 392.674 96.1741L209.939 96.1802C202.474 96.1865 193.667 95.3785 186.417 97.3913C165.683 103.147 150.817 119.673 150.235 141.419L150.161 498.171C150.183 507.84 150.507 515.899 155 524.772Z"
        transform="scale(.8)"></path>
    <path
        d="M306.485 258.827C246.797 262.094 215.332 192.441 252.799 148.645C264.433 135.046 281.262 126.492 299.087 125.131C306.925 124.151 315.287 125.833 322.734 128.342C367.335 143.368 385.521 200.201 352.763 236.662C340.995 249.76 324.058 257.88 306.485 258.827ZM301.849 139.819C253.979 143.172 233.583 201.287 269.037 231.758C279.443 240.702 291.295 244.528 304.896 244.357C352.521 240.784 372.627 182.969 335.586 152.171C326.745 144.82 313.52 139.197 301.849 139.819Z"
        transform="scale(.8)"></path>
    <path
        d="M304.631 214.166C301.076 214.937 297.528 214.467 295.74 210.815 293.273 205.774 297.12 201.951 300.26 198.628 303.186 195.531 302.3 195.462 301.59 191.019L295.886 165.19C294.281 158.559 291.641 151.765 299.138 148.177 302.963 148.005 305.634 148.629 307.402 152.479 310.653 159.559 317.099 187.171 317.476 194.477 317.9 202.666 312.076 211.05 304.631 214.166zM325.548 521.725L324.53 521.901C315.432 523.358 307.725 521.5 306.303 511.212 301.703 477.923 340.002 440.328 360.843 417.386L418.899 356.343C437.886 337.316 457.4 318.54 478.52 301.879 487.894 294.484 497.838 284.827 510.187 283.235 518.972 282.388 527.219 288.4 529.082 296.995 532.332 311.993 509.137 336.703 500.467 347.606L484.974 366.975 396.895 467.434C378.083 488.606 354.537 515.569 325.548 521.725zM511.071 298.207C497.092 301.572 455.039 342.1 444.371 352.354L391.925 405.48 344.084 458.584C333.337 471.744 320.559 490.049 320.551 507.513L324.14 507.095C357.662 497.776 394.523 446.94 416.668 421.906L499.964 324.549C501.791 322.181 519.924 300.36 513.125 298.485L511.071 298.207zM397.691 300.744L200.067 300.614C194.668 300.611 185.297 299.903 188.405 291.375 189.405 288.632 191.161 287.165 193.765 286.017 212.788 286.059 397.653 285.571 399.77 286.463 406.864 289.454 404.024 298.827 397.691 300.744zM382.578 351.867L195.013 352.039C185.561 351.768 185.092 339.198 195.285 337.595L383.438 337.534C384.437 337.573 385.44 337.661 386.282 338.246L386.562 338.453C393.204 343.18 389.4 350.748 382.578 351.867zM319.141 403.815L207.454 403.807C202.972 403.805 198.186 404.149 193.75 403.652 187.038 402.901 181.981 389.33 199.823 389.279L207.935 389.273 319.175 389.274C323.918 389.275 328.876 388.99 333.599 389.351 340.65 389.891 344.796 403.929 329.345 403.883L319.141 403.815zM303.385 455.297L210.09 455.571C204.625 455.587 198.945 455.908 193.504 455.576 185.837 455.109 185.149 442.8 194.602 441.04L301.907 441.052C311.682 441.454 312.882 452.92 303.385 455.297zM286.029 507.061L206.35 507.183C202.507 507.18 198.434 507.483 194.627 507.091 184.79 506.076 186.224 493.948 195.095 492.617L275.813 492.639C279.132 492.641 282.645 492.41 285.938 492.753 294.78 493.674 296.283 505.257 286.029 507.061z"
        transform="scale(.8)"></path>
</svg>